<svg xmlns="http://www.w3.org/2000/svg" width="94" height="94" viewBox="0 0 94 94">
  <g id="Group_18" data-name="Group 18" transform="translate(-7277 -425)">
    <g id="Group_17" data-name="Group 17" transform="translate(205 -4)">
      <g id="Ellipse_4" data-name="Ellipse 4" transform="translate(7072 429)" fill="none" stroke="#606c87" stroke-width="4">
        <circle cx="47" cy="47" r="47" stroke="none"/>
        <circle cx="47" cy="47" r="45" fill="none"/>
      </g>
    </g>
    <path id="Icon_zocial-github" data-name="Icon zocial-github" d="M4.849,49.367c0-6.752.248-10.994,2.9-17.084,5.229-12.312,11.392-21.137,23.7-26.367C37.539,3.268,42.885,1.4,49.637,1.4S61.5,3.268,67.588,5.916c12.18,5.163,19.251,13.219,24.613,25.6,2.648,6.288,2.921,11.3,2.921,17.853s-2.555,10.01-5.2,16.3C84.558,78.11,79.1,83.13,66.923,88.359c-6.09,2.648-10.534,1.911-17.286,1.911s-10.963.311-17.053-2.336C20.272,82.638,14.4,78.043,9.166,65.665c-2.648-6.09-4.317-9.546-4.317-16.3Zm0,2.171c0,9.333,5.819,18.163,11.379,25.511,5.494,7.215,12.533,9.685,21.4,12.73V81.835q0-5.958,3.972-8.638a28.5,28.5,0,0,1-4.667-.7A23.46,23.46,0,0,1,28.3,69.324q-9.036-5.461-9.036-19.759a17.854,17.854,0,0,1,4.965-12.709q-2.284-5.858.5-12.709H26.71a8.168,8.168,0,0,1,2.482.5,34.142,34.142,0,0,1,8.638,4.369,46.836,46.836,0,0,1,11.915-1.589A47.983,47.983,0,0,1,61.76,29.012a42.3,42.3,0,0,1,7.248-3.972,10.763,10.763,0,0,1,4.567-.993l1.191.1q2.681,6.851.5,12.709a17.854,17.854,0,0,1,4.965,12.709q0,11.121-5.461,16.78a19.966,19.966,0,0,1-7.844,4.965A34.146,34.146,0,0,1,57.887,73.2q4.071,2.879,4.071,8.638v7.943c8.539-3.045,16.825-7.4,22.386-14.752,5.428-7.281,10.221-16.392,10.221-25.659,0-5.627-1.267-15.126-3.451-20.355A50.188,50.188,0,0,0,81.006,14.5c-3.707-3.707-8.92-6.4-14.084-8.586A46.122,46.122,0,0,0,49.745,2.359c-5.428,0-14.033,1.306-19.461,3.557-4.965,2.118-10.15,7.778-14.056,11.551-3.707,3.839-7.193,10.585-9.443,15.616C4.6,38.312,4.849,45.911,4.849,51.537Z" transform="translate(7274.453 425.18)" fill="#606c87"/>
  </g>
</svg>
