<svg xmlns="http://www.w3.org/2000/svg" width="522.818" height="522.818" viewBox="0 0 522.818 522.818">
  <path id="Icon_ionic-md-hand" data-name="Icon ionic-md-hand" d="M344.219,207.24c-12.38-12.373-30.6-13.488-42.983-1.114L265.85,241.492c-9.211,9.2-20.312,9.217-26.792,1.572-4.292-5.066-2.6-20.689-1.4-30.6L255.409,66.6c1.585-13.032-7.7-25.622-20.737-27.206S209.783,47.827,208.2,60.856L188.622,175.427c-1.023,2.85-3.217,3.343-3.464-.494L178.5,26.017a23.779,23.779,0,0,0-47.559,0l-.469,150.031c.124,1.732-1.362,2.227-1.63.25L107.684,59.186c-2.334-12.918-14.7-22.242-27.627-19.907S58.548,54.716,60.881,67.632L79.719,204.678c.02,2.438-.8,3.831-1.959.705l-28.1-75.135c-4.4-12.369-17.992-19.578-30.367-15.185S.444,133.79,4.839,146.157L54.106,307.115c.257.888.53,1.77.809,2.647l.1.331c.009.026.021.049.03.075a104.813,104.813,0,0,0,99.67,72.354,141.819,141.819,0,0,0,84.336-28.581l0,0c25.456-15.322,107.012-103,107.012-103C358.45,238.563,356.6,219.616,344.219,207.24Z" transform="translate(-1.155 251.898) rotate(-45)" fill="none" stroke="#606c87" stroke-width="4"/>
</svg>
