<svg xmlns="http://www.w3.org/2000/svg" width="94" height="94" viewBox="0 0 94 94">
  <g id="Group_9" data-name="Group 9" transform="translate(-6951 -429)">
    <g id="Ellipse_3" data-name="Ellipse 3" transform="translate(6951 429)" fill="none" stroke="#606c87" stroke-width="4">
      <circle cx="47" cy="47" r="47" stroke="none"/>
      <circle cx="47" cy="47" r="45" fill="none"/>
    </g>
    <path id="Icon_metro-pinterest" data-name="Icon metro-pinterest" d="M24.975,40.791c-1.561,8.172-3.463,16.005-9.1,20.1-1.739-12.35,2.555-21.622,4.552-31.468-3.4-5.727.41-17.246,7.581-14.406C36.832,18.5,20.361,36.3,31.417,38.521c11.546,2.317,16.258-20.029,9.1-27.3C30.174.727,10.409,10.979,12.842,26.008c.591,3.673,4.386,4.786,1.516,9.857-6.62-1.466-8.6-6.688-8.341-13.649C6.427,10.822,16.252,2.849,26.109,1.742c12.465-1.4,24.165,4.578,25.782,16.3,1.819,13.237-5.626,27.575-18.958,26.542-3.614-.282-5.127-2.074-7.958-3.8Z" transform="translate(6968.921 447.285)" fill="#606c87"/>
  </g>
</svg>
