<svg xmlns="http://www.w3.org/2000/svg" width="37.62" height="56.619" viewBox="0 0 37.62 56.619">
  <path id="Icon_awesome-hand-point-right" data-name="Icon awesome-hand-point-right" d="M54.619,17.083c0,2.191-2.2,4.065-4.779,4.065H39.188c1.743,1.581,1.957,4.616-.672,6.581a3.965,3.965,0,0,1-1.755,5.78c.957,4.558-2.341,6.61-7.745,6.61-.293,0-1.416-.019-1.707-.018-6.611.016-8.2-2.882-13.2-3.554a2.345,2.345,0,0,1-2.162-2.2V18.438h0a4.467,4.467,0,0,1,3.036-4.067C18.066,13.166,25.163,9.822,26.456,7.2a4.542,4.542,0,0,1,4.267-2.7c3.651,0,6.161,3.256,4.707,6.206a12.281,12.281,0,0,1-1.51,2.311H49.84c2.5,0,4.779,1.906,4.779,4.065Zm-44.378.032v17.81a2.411,2.411,0,0,1-2.56,2.226H2.56A2.411,2.411,0,0,1,0,34.925V17.115a2.411,2.411,0,0,1,2.56-2.226H7.681A2.411,2.411,0,0,1,10.241,17.115Z" transform="translate(-3.5 55.619) rotate(-90)" fill="none" stroke="#606c87" stroke-width="2"/>
</svg>
